<svg xmlns="http://www.w3.org/2000/svg" viewBox="0 0 30.52 30.54"><defs><style>.cls-1{fill:#e6e6e6;}</style></defs><title>icono_social_desktop_instagram</title><g id="Capa_2" data-name="Capa 2"><g id="Capa_1-2" data-name="Capa 1"><path class="cls-1" d="M15.29,30.5c-2.12,0-4.25.08-6.36,0A9.5,9.5,0,0,1,.19,22.75,9.83,9.83,0,0,1,0,21c0-3.83,0-7.67,0-11.5A9.59,9.59,0,0,1,9.53,0H21A9.57,9.57,0,0,1,30.5,9.52q0,5.73,0,11.48A9.56,9.56,0,0,1,21,30.52H15.29ZM15.26,3H9.58A6.56,6.56,0,0,0,3,9.61Q3,15.28,3,21a5.66,5.66,0,0,0,.08,1,6.48,6.48,0,0,0,6.43,5.55c3.84,0,7.67,0,11.51,0A6.52,6.52,0,0,0,27.5,21c0-3.85,0-7.71,0-11.56A6.54,6.54,0,0,0,20.91,3H15.26"/><path class="cls-1" d="M22.92,15.25A7.67,7.67,0,1,1,15.24,7.6a7.66,7.66,0,0,1,7.68,7.65m-12.32,0a4.66,4.66,0,1,0,4.65-4.67,4.66,4.66,0,0,0-4.65,4.67"/><path class="cls-1" d="M23.38,8.84A1.74,1.74,0,1,1,25.14,7.1a1.75,1.75,0,0,1-1.76,1.74"/></g></g></svg>