<svg xmlns="http://www.w3.org/2000/svg" viewBox="0 0 40.32 30.54"><defs><style>.cls-1{fill:#e6e6e6;}</style></defs><title>icono_social_desktop_youtube</title><g id="Capa_2" data-name="Capa 2"><g id="Capa_1-2" data-name="Capa 1"><path class="cls-1" d="M40,7.21v0c0-.33-.37-3.21-1.78-4.68a6.54,6.54,0,0,0-4.34-2l-.2,0h-.07C28.3.05,20.25,0,20.17,0h0C20.07,0,12,.05,6.64.44H6.57l-.19,0a6.4,6.4,0,0,0-4.32,2.1C.73,4,.34,6.85.3,7.17v0c0,.13-.3,3.35-.3,6.57v3c0,3.23.28,6.44.3,6.58v0c0,.32.37,3.15,1.77,4.62a6.68,6.68,0,0,0,4.49,2l.4,0h.09c3.08.3,12.73.44,13.14.45h0c.08,0,8.13-.06,13.46-.44h.07l.22,0a6.2,6.2,0,0,0,4.28-2C39.59,26.56,40,23.74,40,23.42v0c0-.14.3-3.35.3-6.58v-3C40.32,10.56,40,7.34,40,7.21ZM26.36,16.34l-8.91,4.79a1.68,1.68,0,0,1-.78.2A1.65,1.65,0,0,1,15,19.69V10a1.64,1.64,0,0,1,2.42-1.44l8.91,4.88a1.63,1.63,0,0,1,0,2.87Z"/></g></g></svg>