<svg xmlns="http://www.w3.org/2000/svg" viewBox="0 0 45 45"><defs><style>.cls-1{fill:#fff;}</style></defs><title>icono_social_instagram</title><g id="Capa_2" data-name="Capa 2"><g id="Capa_3" data-name="Capa 3"><path class="cls-1" d="M26.81,22.5a4.31,4.31,0,1,1-4.31-4.31A4.31,4.31,0,0,1,26.81,22.5Z"/><path class="cls-1" d="M32.57,14.88a4.19,4.19,0,0,0-2.45-2.45,7.13,7.13,0,0,0-2.4-.45c-1.36-.06-1.77-.07-5.22-.07s-3.86,0-5.22.07a7.13,7.13,0,0,0-2.4.45,4.19,4.19,0,0,0-2.45,2.45,7.13,7.13,0,0,0-.45,2.4c-.06,1.36-.07,1.77-.07,5.22s0,3.86.07,5.22a7.13,7.13,0,0,0,.45,2.4,4.2,4.2,0,0,0,1,1.49,4.06,4.06,0,0,0,1.49,1,7.13,7.13,0,0,0,2.4.45c1.36.06,1.77.07,5.22.07s3.86,0,5.22-.07a7.13,7.13,0,0,0,2.4-.45,4.23,4.23,0,0,0,2.45-2.45,7.13,7.13,0,0,0,.45-2.4c.06-1.36.07-1.77.07-5.22s0-3.86-.07-5.22A7.13,7.13,0,0,0,32.57,14.88ZM22.5,29.13a6.63,6.63,0,1,1,6.63-6.63A6.63,6.63,0,0,1,22.5,29.13Zm6.9-12A1.55,1.55,0,1,1,31,15.6,1.54,1.54,0,0,1,29.4,17.15Z"/><path class="cls-1" d="M22.5,0A22.5,22.5,0,1,0,45,22.5,22.51,22.51,0,0,0,22.5,0ZM35.34,27.83a9.38,9.38,0,0,1-.6,3.13A6.58,6.58,0,0,1,31,34.74a9.38,9.38,0,0,1-3.13.6c-1.38.06-1.82.08-5.33.08s-3.95,0-5.33-.08a9.38,9.38,0,0,1-3.13-.6A6.6,6.6,0,0,1,10.26,31a9.38,9.38,0,0,1-.6-3.13c-.07-1.38-.08-1.82-.08-5.33s0-3.95.08-5.33a9.38,9.38,0,0,1,.6-3.13A6.6,6.6,0,0,1,14,10.26a9.38,9.38,0,0,1,3.13-.6c1.38-.06,1.82-.08,5.33-.08s3.95,0,5.33.08a9.38,9.38,0,0,1,3.13.6A6.6,6.6,0,0,1,34.74,14a9.38,9.38,0,0,1,.6,3.13c.07,1.38.08,1.82.08,5.33S35.41,26.45,35.34,27.83Z"/></g></g></svg>