<svg xmlns="http://www.w3.org/2000/svg" viewBox="0 0 45 45"><defs><style>.cls-1{fill:#fff;}</style></defs><title>icono_social_youtube</title><g id="Capa_2" data-name="Capa 2"><g id="Capa_3" data-name="Capa 3"><path class="cls-1" d="M19.7,26.72,27,22.5,19.7,18.28Z"/><path class="cls-1" d="M22.5,0A22.5,22.5,0,1,0,45,22.5,22.51,22.51,0,0,0,22.5,0ZM36.56,22.52A37.12,37.12,0,0,1,36,29.29a3.5,3.5,0,0,1-2.48,2.47c-2.2.58-11,.58-11,.58s-8.78,0-11-.6A3.49,3.49,0,0,1,9,29.26a36.85,36.85,0,0,1-.58-6.76A37,37,0,0,1,9,15.74a3.57,3.57,0,0,1,2.48-2.5c2.2-.58,11-.58,11-.58s8.8,0,11,.6A3.49,3.49,0,0,1,36,15.74,35.41,35.41,0,0,1,36.56,22.52Z"/></g></g></svg>