<svg xmlns="http://www.w3.org/2000/svg" viewBox="0 0 45 45"><defs><style>.cls-1{fill:#fff;}</style></defs><title>icono_social_twitter</title><g id="Capa_2" data-name="Capa 2"><g id="Capa_3" data-name="Capa 3"><path class="cls-1" d="M22.5,0A22.5,22.5,0,1,0,45,22.5,22.51,22.51,0,0,0,22.5,0ZM32.77,17.54c0,.22,0,.45,0,.67A14.6,14.6,0,0,1,18.09,32.9h0a14.56,14.56,0,0,1-7.91-2.32,9.9,9.9,0,0,0,1.23.08,10.36,10.36,0,0,0,6.41-2.21A5.18,5.18,0,0,1,13,24.86,5.15,5.15,0,0,0,14,25a5.07,5.07,0,0,0,1.36-.18,5.16,5.16,0,0,1-4.14-5.06v-.07a5.15,5.15,0,0,0,2.34.65,5.17,5.17,0,0,1-1.6-6.9,14.66,14.66,0,0,0,10.64,5.4,5.69,5.69,0,0,1-.13-1.18,5.17,5.17,0,0,1,8.94-3.53,10.27,10.27,0,0,0,3.27-1.25,5.15,5.15,0,0,1-2.27,2.85,10.2,10.2,0,0,0,3-.81A10.56,10.56,0,0,1,32.77,17.54Z"/></g></g></svg>