<svg xmlns="http://www.w3.org/2000/svg" viewBox="0 0 31.11 25.45"><defs><style>.cls-1{fill:#e6e6e6;}</style></defs><title>icono_social_desktop_twitter</title><g id="Capa_2" data-name="Capa 2"><g id="Capa_1-2" data-name="Capa 1"><path class="cls-1" d="M0,22.62a13.21,13.21,0,0,0,9.34-2.69,6.56,6.56,0,0,1-6-4.46,7.15,7.15,0,0,0,2.81-.12A6.55,6.55,0,0,1,1.08,9,6.69,6.69,0,0,0,4,9.75a6.36,6.36,0,0,1-2.78-4.6A6,6,0,0,1,2,1.23,18.31,18.31,0,0,0,15.24,7.9c0-.38-.1-.73-.11-1.08A6.25,6.25,0,0,1,18.28.89a6.37,6.37,0,0,1,7.58.82.72.72,0,0,0,.77.22A13.91,13.91,0,0,0,30.27.46,7.08,7.08,0,0,1,27.64,4c.37-.07.75-.12,1.13-.21s.78-.2,1.17-.33.74-.26,1.11-.4l.06.07c-.51.59-1,1.21-1.52,1.77a18.66,18.66,0,0,1-1.42,1.25A.54.54,0,0,0,28,6.6a18.58,18.58,0,0,1-5.78,14,16.78,16.78,0,0,1-8.94,4.52,18.61,18.61,0,0,1-9.86-.82A16.11,16.11,0,0,1,0,22.62"/></g></g></svg>