<svg xmlns="http://www.w3.org/2000/svg" viewBox="0 0 120 120"><defs><style>.cls-1{fill:#ef802e;}.cls-2{fill:#0092b1;}.cls-3{fill:#fff;}</style></defs><title>ilustracion_error_final</title><g id="Capa_2" data-name="Capa 2"><g id="Capa_3" data-name="Capa 3"><path class="cls-1" d="M120,60A60,60,0,1,1,60,0,60,60,0,0,1,120,60Z"/><path class="cls-2" d="M89.39,102.42H30.61a7,7,0,0,1-6.94-6.94v-71a7,7,0,0,1,6.94-6.94H89.39a7,7,0,0,1,6.94,6.94v71A7,7,0,0,1,89.39,102.42Z"/><path class="cls-3" d="M28.76,22.37H91.24V96.68H28.76Z"/><path class="cls-1" d="M28.76,90.92H91.24v5.76H28.76Z"/><path class="cls-2" d="M68.24,30.91H51.76a6.5,6.5,0,0,1-6.5-6.5V17.58H74.74v6.83A6.5,6.5,0,0,1,68.24,30.91Z"/><path class="cls-1" d="M78.73,60.69A18.73,18.73,0,1,1,60,42,18.73,18.73,0,0,1,78.73,60.69Z"/><path class="cls-3" d="M71.05,66.32l-5.64-5.63,5.64-5.64-5.41-5.41L60,55.27l-5.64-5.63L49,55.05l5.64,5.64L49,66.32l5.41,5.42L60,66.1l5.64,5.64Z"/></g></g></svg>