<svg xmlns="http://www.w3.org/2000/svg" viewBox="0 0 118.33 120"><defs><style>.cls-1{fill:#ef802e;}.cls-2{fill:#fff;}.cls-3{fill:#0092b1;}.cls-4{fill:#fac5aa;}</style></defs><title>ilustracion_final</title><g id="Capa_2" data-name="Capa 2"><g id="Capa_3" data-name="Capa 3"><path class="cls-1" d="M108.42,65.79A54.21,54.21,0,1,1,54.21,11.58,54.21,54.21,0,0,1,108.42,65.79Z"/><path class="cls-2" d="M115.19,61.78l-31,20.5a10.59,10.59,0,0,1-7.49,1.63,10.56,10.56,0,0,0-7.5,1.61l-4.15,2.75-23.2-34.2,5.7-24.59A25.64,25.64,0,0,0,44,9.53a6.14,6.14,0,0,1,9.39-7.8L57.06,5.3a39.47,39.47,0,0,1,9.51,14.59l2,5.38L89.16,11.66A7,7,0,0,1,99,13.81a7.12,7.12,0,0,1-2.21,9.64.08.08,0,0,0,0,.1.08.08,0,0,0,.1,0,6.89,6.89,0,0,1,2.51-.47,7,7,0,0,1,5.86,3.15,7,7,0,0,1,1,5.24A7.18,7.18,0,0,1,103.32,36a.16.16,0,0,0,0,.21h0a.14.14,0,0,0,.19,0,7.68,7.68,0,0,1,1.71-.2,7.42,7.42,0,0,1,4,1.15,6.88,6.88,0,0,1,2,2,7,7,0,0,1-2,9.73l-.24.16a.11.11,0,0,0,0,.14l0,0a.12.12,0,0,0,.14,0,6.84,6.84,0,0,1,6,.76,7.17,7.17,0,0,1,2.1,2.08A7,7,0,0,1,115.19,61.78Z"/><path class="cls-3" d="M65.39,94.76l-13.06,8.65L33.48,115.89a54.26,54.26,0,0,1-33-42.65L22.39,58.75l13.32-8.82a3.35,3.35,0,0,1,4.62.94l26,39.27A3.33,3.33,0,0,1,65.39,94.76Z"/><path class="cls-3" d="M65.39,94.76l-13.06,8.65L22.39,58.75l13.32-8.82a3.35,3.35,0,0,1,4.62.94l26,39.27A3.33,3.33,0,0,1,65.39,94.76Z"/><path class="cls-4" d="M103.2,24.25,92.9,29.76a3.34,3.34,0,0,1-4.26-1l8.12-5.25a.08.08,0,0,0,.1,0,6.89,6.89,0,0,1,2.51-.47A7.08,7.08,0,0,1,103.2,24.25Z"/><path class="cls-4" d="M109.15,37.15,99.07,42.54a3.33,3.33,0,0,1-4.25-.95l8.12-5.26.35-.16a.15.15,0,0,0,.2,0,7.52,7.52,0,0,1,1.7-.2A7.42,7.42,0,0,1,109.15,37.15Z"/><path class="cls-4" d="M115.07,50l-8.88,4.75a3.35,3.35,0,0,1-4.26-1l7-4.55a.12.12,0,0,0,.14,0A6.87,6.87,0,0,1,115.07,50Z"/></g></g></svg>